<svg version="1.1" id="Layer_1" xmlns="http://www.w3.org/2000/svg" xmlns:xlink="http://www.w3.org/1999/xlink" x="0px" y="0px"
	 width="100%" viewBox="0 0 319 414" enable-background="new 0 0 319 414" xml:space="preserve">
<path fill="#FFFFFF" opacity="1.000000" stroke="none" 
	d="
M1.000000,170.000000 
	C1.000000,113.704193 1.000000,57.408394 1.000000,1.056294 
	C107.224937,1.056294 213.449921,1.056294 320.000000,1.056294 
	C320.000000,57.020473 320.000000,113.041580 319.664093,169.432007 
	C313.418182,166.497894 307.636047,162.935883 301.574432,159.939056 
	C282.732758,150.623825 262.619873,145.182083 242.074219,140.547607 
	C252.409805,98.903374 262.805634,57.667938 273.311188,15.997188 
	C264.016144,15.997188 255.364441,15.856156 246.727646,16.151514 
	C245.454025,16.195070 243.479538,18.108946 243.127747,19.488564 
	C233.221558,58.338055 223.482498,97.230171 213.297287,136.067017 
	C211.055496,135.991837 209.192200,136.202621 207.415527,135.901840 
	C186.338837,132.333588 165.100266,132.829865 143.541962,133.033997 
	C136.214493,111.229858 129.207199,89.647255 122.199905,68.064644 
	C121.819366,68.120338 121.438820,68.176041 121.058281,68.231735 
	C115.264999,91.205635 109.471710,114.179527 103.270630,137.084213 
	C66.816528,141.549484 32.481598,151.368973 1.000000,170.000000 
z"/>
<path fill="#FFFFFF" opacity="1.000000" stroke="none" 
	d="
M320.000000,269.000000 
	C320.000000,317.631866 320.000000,366.263733 320.000000,414.947815 
	C213.777527,414.947815 107.555016,414.947815 1.000000,414.947815 
	C1.000000,366.312958 1.000000,317.625122 1.332163,268.574097 
	C4.835191,270.156860 7.946329,272.209045 11.186950,274.030945 
	C27.767403,283.352600 45.799767,288.867096 63.996094,294.442505 
	C59.178722,314.625793 54.354065,334.401154 49.467503,354.161163 
	C45.712120,369.346985 41.878792,384.513519 38.002167,400.000092 
	C47.001011,400.000092 55.490421,400.138947 63.966064,399.859741 
	C65.335190,399.814697 67.500114,398.138397 67.847939,396.830658 
	C71.730179,382.234985 75.281334,367.551727 79.013512,352.915497 
	C83.532219,335.194855 88.139053,317.496735 93.125130,299.947998 
	C94.628670,300.399109 95.699638,300.853943 96.803459,300.957031 
	C104.655228,301.690521 112.501526,302.607330 120.372612,302.983215 
	C136.543762,303.755371 152.729324,304.225708 169.281616,304.982178 
	C171.100784,309.899811 172.485794,314.675262 174.005692,319.407379 
	C178.011826,331.880219 182.076569,344.334229 186.117966,356.795746 
	C189.328827,347.536072 191.581436,338.242981 194.029327,329.001648 
	C196.265396,320.559998 198.712860,312.174408 201.466888,303.699310 
	C207.535767,303.077454 213.288483,302.953308 218.857697,301.878418 
	C232.981354,299.152466 247.132355,296.429840 261.060760,292.876282 
	C271.330994,290.256073 281.476959,286.841522 291.293976,282.838409 
	C301.111267,278.835297 310.450958,273.660950 320.000000,269.000000 
z"/>
<path fill="#A10202" opacity="1.000000" stroke="none" 
	d="
M320.000000,268.531342 
	C310.450958,273.660950 301.111267,278.835297 291.293976,282.838409 
	C281.476959,286.841522 271.330994,290.256073 261.060760,292.876282 
	C247.132355,296.429840 232.981354,299.152466 218.857697,301.878418 
	C213.288483,302.953308 207.535767,303.077454 201.434738,303.293121 
	C204.079544,290.326904 207.156235,277.702087 210.628082,265.029053 
	C211.594467,264.681763 212.135101,264.222931 212.741333,264.107025 
	C227.083374,261.364624 241.749054,259.736786 255.690613,255.641495 
	C269.420013,251.608551 282.835876,245.895721 295.575256,239.338470 
	C303.015808,235.508682 309.002686,228.735901 315.353363,222.967667 
	C317.783203,220.760696 317.522705,217.622467 315.411652,214.982758 
	C313.781342,212.944122 312.248962,210.722626 310.254028,209.096512 
	C293.188568,195.186264 273.133850,187.615158 252.175461,182.006683 
	C245.794342,180.299072 239.423767,178.552032 233.034821,176.423782 
	C236.058990,164.335144 239.096710,152.645767 242.134445,140.956406 
	C262.619873,145.182083 282.732758,150.623825 301.574432,159.939056 
	C307.636047,162.935883 313.418182,166.497894 319.664093,169.900665 
	C320.000000,202.687561 320.000000,235.375122 320.000000,268.531342 
z"/>
<path fill="#A20202" opacity="1.000000" stroke="none" 
	d="
M63.962166,294.027954 
	C45.799767,288.867096 27.767403,283.352600 11.186950,274.030945 
	C7.946329,272.209045 4.835191,270.156860 1.332163,268.105469 
	C1.000000,235.645767 1.000000,203.291550 1.000000,170.468658 
	C32.481598,151.368973 66.816528,141.549484 103.342560,137.453522 
	C100.504662,150.609467 97.187042,163.326904 93.512070,176.201172 
	C91.575783,176.642044 89.947906,176.766846 88.425468,177.234726 
	C72.523544,182.121582 56.464542,186.574310 40.803715,192.144440 
	C28.206095,196.625076 16.688251,203.325531 7.705760,213.716125 
	C4.832977,217.039246 3.863773,220.050354 7.072075,223.607925 
	C8.374740,225.052399 9.315823,226.858047 10.734778,228.157089 
	C23.480804,239.826096 39.114258,246.181061 55.035149,251.952179 
	C61.024673,254.123291 67.098152,256.062775 73.121109,258.523132 
	C72.759682,260.872467 72.550072,262.844330 72.037910,264.734253 
	C69.388580,274.510376 66.661888,284.265503 63.962166,294.027954 
z"/>
<path fill="#020101" opacity="1.000000" stroke="none" 
	d="
M93.869431,176.044342 
	C97.187042,163.326904 100.504662,150.609467 103.750351,137.522736 
	C109.471710,114.179527 115.264999,91.205635 121.058281,68.231735 
	C121.438820,68.176041 121.819366,68.120338 122.199905,68.064644 
	C129.207199,89.647255 136.214493,111.229858 143.556061,133.424988 
	C146.634857,143.395447 149.286652,152.782150 152.176285,162.095093 
	C153.133865,165.181290 154.703430,168.077576 155.986816,171.445404 
	C165.141327,199.774139 174.302216,227.718140 183.505814,255.792480 
	C188.245789,237.025269 192.975861,218.482040 197.599075,199.912231 
	C199.820770,190.988480 201.840668,182.014481 204.253418,172.833160 
	C207.608597,160.440506 210.662308,148.277893 213.716034,136.115295 
	C223.482498,97.230171 233.221558,58.338055 243.127747,19.488564 
	C243.479538,18.108946 245.454025,16.195070 246.727646,16.151514 
	C255.364441,15.856156 264.016144,15.997188 273.311188,15.997188 
	C262.805634,57.667938 252.409805,98.903374 242.074219,140.547607 
	C239.096710,152.645767 236.058990,164.335144 232.664108,176.604462 
	C224.948944,206.482025 217.590927,235.779648 210.232910,265.077271 
	C207.156235,277.702087 204.079544,290.326904 201.035019,303.357910 
	C198.712860,312.174408 196.265396,320.559998 194.029327,329.001648 
	C191.581436,338.242981 189.328827,347.536072 186.117966,356.795746 
	C182.076569,344.334229 178.011826,331.880219 174.005692,319.407379 
	C172.485794,314.675262 171.100784,309.899811 169.304657,304.602173 
	C168.266510,301.688538 167.670532,299.285278 166.873276,296.950745 
	C163.576355,287.296539 160.218506,277.663086 156.936066,267.619843 
	C147.290543,236.673752 137.610474,206.123932 127.823402,175.608414 
	C127.446236,174.432449 126.039810,173.586578 124.692329,172.133163 
	C117.020226,202.742554 109.597694,232.356186 102.096603,262.213898 
	C102.031662,262.628357 102.045280,262.798767 101.751389,263.194458 
	C98.531845,275.542816 95.619797,287.665833 92.707756,299.788849 
	C88.139053,317.496735 83.532219,335.194855 79.013512,352.915497 
	C75.281334,367.551727 71.730179,382.234985 67.847939,396.830658 
	C67.500114,398.138397 65.335190,399.814697 63.966064,399.859741 
	C55.490421,400.138947 47.001011,400.000092 38.002167,400.000092 
	C41.878792,384.513519 45.712120,369.346985 49.467503,354.161163 
	C54.354065,334.401154 59.178722,314.625793 63.996094,294.442505 
	C66.661888,284.265503 69.388580,274.510376 72.037910,264.734253 
	C72.550072,262.844330 72.759682,260.872467 73.462234,258.326904 
	C73.885452,256.888184 73.842819,256.032837 74.041435,255.237778 
	C80.636520,228.836411 87.254662,202.440796 93.869431,176.044342 
z"/>
<path fill="#A10202" opacity="1.000000" stroke="none" 
	d="
M155.993195,171.060699 
	C154.703430,168.077576 153.133865,165.181290 152.176285,162.095093 
	C149.286652,152.782150 146.634857,143.395447 143.876236,133.646515 
	C165.100266,132.829865 186.338837,132.333588 207.415527,135.901840 
	C209.192200,136.202621 211.055496,135.991837 213.297272,136.067017 
	C210.662308,148.277893 207.608597,160.440506 203.896347,172.807312 
	C202.167313,172.626495 201.096817,172.241486 199.711212,171.587402 
	C195.542236,171.224335 191.688339,171.130325 187.617630,171.026611 
	C187.400803,171.016922 186.997650,170.856064 186.679108,170.590729 
	C181.266678,170.219131 176.170349,169.965866 171.079590,170.049667 
	C166.373230,170.127106 161.672806,170.565659 156.730011,170.918900 
	C156.324554,171.015335 156.158875,171.038025 155.993195,171.060699 
z"/>
<path fill="#A10203" opacity="1.000000" stroke="none" 
	d="
M93.125122,299.947998 
	C95.619797,287.665833 98.531845,275.542816 102.112122,263.339966 
	C104.521500,263.442261 106.262657,263.624390 108.317291,263.887512 
	C109.060890,264.002594 109.491005,264.036713 110.039543,264.365417 
	C110.763031,264.709198 111.368095,264.758453 112.309494,264.885040 
	C113.101395,264.919312 113.556969,264.876251 114.254677,264.909241 
	C114.658859,264.936707 114.820923,264.888123 115.371567,264.911377 
	C116.813416,265.007172 117.866692,265.031097 119.003387,265.302826 
	C119.385384,265.631012 119.683952,265.711365 120.318832,265.865173 
	C121.108765,265.893127 121.562386,265.847687 122.255585,265.884644 
	C122.655945,265.915222 122.816704,265.863342 123.401611,265.898621 
	C125.383659,266.318085 126.931526,266.875854 128.501099,266.945679 
	C137.958984,267.366547 147.421844,267.675568 156.883041,268.022034 
	C160.218506,277.663086 163.576355,287.296539 166.873276,296.950745 
	C167.670532,299.285278 168.266510,301.688538 168.932007,304.440247 
	C152.729324,304.225708 136.543762,303.755371 120.372612,302.983215 
	C112.501526,302.607330 104.655228,301.690521 96.803459,300.957031 
	C95.699638,300.853943 94.628670,300.399109 93.125122,299.947998 
z"/>
<path fill="#FEFEFD" opacity="1.000000" stroke="none" 
	d="
M210.628082,265.029053 
	C217.590927,235.779648 224.948944,206.482025 232.677673,177.003738 
	C239.423767,178.552032 245.794342,180.299072 252.175461,182.006683 
	C273.133850,187.615158 293.188568,195.186264 310.254028,209.096512 
	C312.248962,210.722626 313.781342,212.944122 315.411652,214.982758 
	C317.522705,217.622467 317.783203,220.760696 315.353363,222.967667 
	C309.002686,228.735901 303.015808,235.508682 295.575256,239.338470 
	C282.835876,245.895721 269.420013,251.608551 255.690613,255.641495 
	C241.749054,259.736786 227.083374,261.364624 212.741333,264.107025 
	C212.135101,264.222931 211.594467,264.681763 210.628082,265.029053 
z"/>
<path fill="#FEFDFD" opacity="1.000000" stroke="none" 
	d="
M93.512070,176.201172 
	C87.254662,202.440796 80.636520,228.836411 74.041435,255.237778 
	C73.842819,256.032837 73.885452,256.888184 73.474480,257.911652 
	C67.098152,256.062775 61.024673,254.123291 55.035149,251.952179 
	C39.114258,246.181061 23.480804,239.826096 10.734778,228.157089 
	C9.315823,226.858047 8.374740,225.052399 7.072075,223.607925 
	C3.863773,220.050354 4.832977,217.039246 7.705760,213.716125 
	C16.688251,203.325531 28.206095,196.625076 40.803715,192.144440 
	C56.464542,186.574310 72.523544,182.121582 88.425468,177.234726 
	C89.947906,176.766846 91.575783,176.642044 93.512070,176.201172 
z"/>
<path fill="#FEFEFE" opacity="1.000000" stroke="none" 
	d="
M156.936066,267.619843 
	C147.421844,267.675568 137.958984,267.366547 128.501099,266.945679 
	C126.931526,266.875854 125.383659,266.318085 123.315048,265.751251 
	C122.541557,265.611877 122.278778,265.707031 122.015999,265.802216 
	C121.562386,265.847687 121.108765,265.893127 120.191910,265.677917 
	C119.506897,265.189850 119.237328,265.069061 118.919960,265.054993 
	C117.866692,265.031097 116.813416,265.007172 115.282059,264.764954 
	C114.540161,264.642181 114.276352,264.737701 114.012550,264.833191 
	C113.556969,264.876251 113.101395,264.919312 112.117172,264.669739 
	C111.032730,264.275024 110.476929,264.172943 109.921127,264.070862 
	C109.491005,264.036713 109.060890,264.002594 108.268951,263.547058 
	C106.536362,260.063080 104.390312,260.845154 102.175171,261.969818 
	C109.597694,232.356186 117.020226,202.742554 124.692329,172.133163 
	C126.039810,173.586578 127.446236,174.432449 127.823402,175.608414 
	C137.610474,206.123932 147.290543,236.673752 156.936066,267.619843 
z"/>
<path fill="#FEFEFD" opacity="1.000000" stroke="none" 
	d="
M155.986816,171.445404 
	C156.158875,171.038025 156.324554,171.015335 157.196518,171.000458 
	C167.601089,170.957550 177.299362,170.906799 186.997650,170.856064 
	C186.997650,170.856064 187.400803,171.016922 187.850830,171.400650 
	C192.209335,171.808411 196.117828,171.832443 200.026321,171.856476 
	C201.096817,172.241486 202.167313,172.626495 203.594879,173.037369 
	C201.840668,182.014481 199.820770,190.988480 197.599075,199.912231 
	C192.975861,218.482040 188.245789,237.025269 183.505814,255.792480 
	C174.302216,227.718140 165.141327,199.774139 155.986816,171.445404 
z"/>
<path fill="#FEF2F2" opacity="1.000000" stroke="none" 
	d="
M102.096603,262.213898 
	C104.390312,260.845154 106.536362,260.063080 107.955475,263.466125 
	C106.262657,263.624390 104.521500,263.442261 102.419617,263.114624 
	C102.045280,262.798767 102.031662,262.628357 102.096603,262.213898 
z"/>
<path fill="#850E11" opacity="1.000000" stroke="none" 
	d="
M186.679108,170.590729 
	C177.299362,170.906799 167.601089,170.957550 157.436279,170.926727 
	C161.672806,170.565659 166.373230,170.127106 171.079590,170.049667 
	C176.170349,169.965866 181.266678,170.219131 186.679108,170.590729 
z"/>
<path fill="#850E11" opacity="1.000000" stroke="none" 
	d="
M199.711212,171.587402 
	C196.117828,171.832443 192.209335,171.808411 188.067657,171.410339 
	C191.688339,171.130325 195.542236,171.224335 199.711212,171.587402 
z"/>
<path fill="#FEF2F2" opacity="1.000000" stroke="none" 
	d="
M110.039543,264.365417 
	C110.476929,264.172943 111.032730,264.275024 111.780853,264.592407 
	C111.368095,264.758453 110.763031,264.709198 110.039543,264.365417 
z"/>
<path fill="#FEF2F2" opacity="1.000000" stroke="none" 
	d="
M114.254677,264.909241 
	C114.276352,264.737701 114.540161,264.642181 114.893478,264.693115 
	C114.820923,264.888123 114.658859,264.936707 114.254677,264.909241 
z"/>
<path fill="#FEF2F2" opacity="1.000000" stroke="none" 
	d="
M119.003387,265.302826 
	C119.237328,265.069061 119.506897,265.189850 119.855591,265.604523 
	C119.683952,265.711365 119.385384,265.631012 119.003387,265.302826 
z"/>
<path fill="#FEF2F2" opacity="1.000000" stroke="none" 
	d="
M122.255585,265.884644 
	C122.278778,265.707031 122.541557,265.611877 122.890900,265.664124 
	C122.816704,265.863342 122.655945,265.915222 122.255585,265.884644 
z"/>
</svg>