<svg version="1.1" id="Layer_1" xmlns="http://www.w3.org/2000/svg" xmlns:xlink="http://www.w3.org/1999/xlink" x="0px" y="0px"
	 width="100%" viewBox="0 0 1056 414" enable-background="new 0 0 1056 414" xml:space="preserve">
<path fill="#FFFFFF" opacity="1.000000" stroke="none" 
	d="
M660.000000,415.000000 
	C440.000000,415.000000 220.500000,415.000000 1.000000,415.000000 
	C1.000000,277.000000 1.000000,139.000000 1.000000,1.000000 
	C353.000000,1.000000 705.000000,1.000000 1057.000000,1.000000 
	C1057.000000,139.000000 1057.000000,277.000000 1057.000000,415.000000 
	C924.833313,415.000000 792.666687,415.000000 660.000000,415.000000 
M140.000183,136.997025 
	C135.938522,137.355835 131.765335,137.236633 127.834000,138.153946 
	C107.908638,142.803253 87.890747,147.049988 68.823952,154.892136 
	C48.285370,163.339615 28.849220,173.235535 14.566886,190.957382 
	C2.262491,206.224945 -0.114313,225.245804 11.274698,242.763824 
	C20.449327,256.875793 33.863171,266.011749 48.219604,274.046234 
	C64.830566,283.342438 82.874718,288.814941 101.041641,294.882874 
	C100.695053,296.631195 100.422516,298.397980 99.990913,300.125061 
	C91.707977,333.269196 83.406372,366.408600 74.995735,399.999878 
	C83.458099,399.999878 91.743675,399.846588 100.018677,400.075470 
	C103.324097,400.166931 104.368301,398.986481 105.101685,395.842010 
	C108.203514,382.542664 111.676010,369.329803 115.015076,356.085815 
	C119.726959,337.396759 124.440681,318.708130 129.979050,300.036987 
	C130.550644,300.328552 131.101425,300.820312 131.696884,300.882233 
	C145.170837,302.283386 158.623795,304.095520 172.135590,304.858704 
	C183.388550,305.494354 194.711670,304.888428 206.716248,305.201324 
	C208.808807,311.940552 210.862701,318.692078 213.002838,325.416168 
	C216.341476,335.905853 219.738617,346.376892 223.110977,356.855835 
	C223.425522,356.845123 223.740082,356.834412 224.054626,356.823700 
	C228.422379,339.222260 232.790115,321.620819 237.974777,303.979919 
	C246.962021,302.654541 255.970932,301.459259 264.930634,299.968414 
	C274.523376,298.372162 284.271393,297.209106 293.586914,294.569763 
	C306.096924,291.025360 318.386719,286.583923 330.537354,281.918854 
	C348.951294,274.849091 365.698425,264.954590 379.173492,250.258163 
	C386.716400,242.031494 391.633179,232.325668 391.912384,221.037872 
	C392.427246,200.222992 380.162415,186.437988 364.732574,175.092148 
	C354.609497,167.648483 343.524872,161.734406 331.812744,156.804184 
	C314.777313,149.633118 297.165070,144.781967 279.020996,140.190063 
	C289.410065,98.942619 299.799133,57.695175 310.301208,15.999012 
	C301.440247,15.999012 293.125031,16.167280 284.822723,15.913125 
	C281.665466,15.816475 280.626556,17.058495 279.951569,19.852375 
	C276.534973,33.993546 272.970154,48.099064 269.425659,62.209126 
	C263.247223,86.804749 257.045685,111.394569 249.975815,135.998108 
	C231.334915,134.998291 212.696365,133.950684 194.051453,133.032486 
	C189.427551,132.804779 184.783005,132.996460 180.010742,132.205078 
	C173.081802,110.852386 166.152878,89.499687 159.223953,68.146996 
	C158.781494,68.208176 158.339035,68.269363 157.896591,68.330551 
	C152.212952,91.216019 146.529327,114.101494 140.000183,136.997025 
M425.438324,285.997375 
	C425.150909,285.922333 424.845886,285.882965 424.584991,285.754181 
	C424.485077,285.704926 424.402130,285.346405 424.452942,285.305817 
	C432.443176,278.918579 440.173309,272.162415 448.505157,266.255035 
	C466.565796,253.449875 483.082336,239.002808 497.365845,222.083801 
	C507.383148,210.218216 513.663208,197.101120 511.061646,180.870895 
	C508.500336,164.891739 500.326508,152.460190 487.447937,143.254150 
	C476.098358,135.141113 462.995758,131.952026 449.075073,131.987778 
	C430.909271,132.034424 412.743225,131.999268 394.577301,131.999313 
	C393.139099,131.999313 391.700897,131.999313 390.266113,131.999313 
	C390.266113,139.930298 390.266113,147.335953 390.266113,155.073303 
	C397.638245,155.073303 404.749268,155.073303 411.500610,155.073303 
	C411.307678,157.983627 411.332642,160.596848 410.931915,163.143082 
	C409.017853,175.305557 406.933075,187.441162 405.015900,199.603180 
	C403.247162,210.823410 401.684540,222.076202 399.903870,233.294434 
	C397.669342,247.371628 395.387543,261.442749 392.917877,275.479828 
	C392.494049,277.888733 391.643250,280.840637 389.930176,282.285614 
	C385.277496,286.210205 380.141541,289.590546 375.037811,292.944122 
	C369.174591,296.796722 363.140289,300.388977 357.180298,304.094330 
	C357.273773,304.422394 357.367218,304.750458 357.460693,305.078522 
	C367.935730,305.078522 378.410797,305.078522 389.001526,305.078522 
	C387.940918,310.353485 386.863312,315.070709 386.070282,319.835297 
	C385.253540,324.742249 384.714203,329.695374 384.027100,334.825470 
	C391.783508,334.825470 399.230164,334.825470 406.965118,334.825470 
	C407.998383,327.821564 408.861694,320.919006 410.064392,314.076080 
	C411.662994,304.980438 411.776642,305.000214 421.349274,305.000214 
	C496.179565,305.000183 571.009888,305.000275 645.840149,305.000305 
	C647.744385,305.000305 649.648560,305.000275 651.795654,305.000275 
	C648.437439,315.147949 645.219666,324.871124 641.868164,334.998657 
	C651.370911,334.998657 660.513123,335.113892 669.644592,334.853271 
	C670.789368,334.820587 672.417419,333.001251 672.901428,331.674164 
	C675.428406,324.745239 678.063416,317.809021 679.844421,310.671631 
	C680.978271,306.127899 682.886963,304.884033 687.505737,304.889832 
	C801.167603,305.031982 914.829651,305.000610 1028.491699,305.000214 
	C1030.282715,305.000183 1032.073730,305.000183 1033.822876,305.000183 
	C1034.715332,298.465790 1035.540649,292.423218 1036.417847,286.000305 
	C1033.677368,286.000305 1031.867310,286.000275 1030.057251,286.000275 
	C951.893738,286.000275 873.730286,286.000336 795.566772,286.000244 
	C794.400146,286.000244 793.109680,286.313568 792.099487,285.915741 
	C790.938599,285.458649 789.441162,284.566498 789.094910,283.528137 
	C785.195190,271.834656 781.665466,260.016449 777.688232,248.350449 
	C772.007507,231.687622 765.868591,215.180496 760.233521,198.502762 
	C753.264648,177.877563 746.587219,157.153610 739.847595,136.451538 
	C738.839966,133.356430 737.543030,131.614273 733.698669,131.877731 
	C727.229248,132.321106 720.698975,132.197418 714.211304,131.917648 
	C710.846497,131.772552 709.306946,132.677048 708.310913,136.096283 
	C705.044373,147.309204 701.502869,158.449615 697.765564,169.516098 
	C690.999329,189.551300 683.939880,209.487320 677.145752,229.513229 
	C671.279358,246.804291 665.542419,264.140289 659.913452,281.509949 
	C658.777039,285.016602 657.036987,286.108612 653.265808,286.101837 
	C577.602478,285.966217 501.938812,286.000763 425.438324,285.997375 
M578.998291,216.343109 
	C578.666016,210.631042 578.349548,204.917999 577.997681,199.207153 
	C577.513550,191.348801 581.069458,184.560303 585.224365,178.667557 
	C590.506653,171.175827 598.096558,165.711792 607.225830,163.399933 
	C619.737488,160.231522 630.628052,160.785767 638.653381,173.077911 
	C641.731445,177.792404 645.352844,182.152130 648.835938,186.819931 
	C656.452820,182.159485 664.348511,177.328400 673.497437,171.730530 
	C666.776062,163.356201 660.921448,155.168930 654.144043,147.834427 
	C644.823914,137.748322 632.578003,133.075745 619.051392,133.172424 
	C608.420959,133.248398 598.229004,135.424286 588.326538,140.571167 
	C576.719727,146.603943 566.829346,154.120911 560.114929,165.093704 
	C549.127319,183.049835 545.898987,202.811722 551.258667,223.120605 
	C555.612061,239.616364 564.094971,253.753326 579.421753,263.176270 
	C588.485718,268.748810 598.059143,272.135986 608.376648,272.866882 
	C625.363098,274.070251 640.807068,270.355560 653.921936,258.174164 
	C663.240479,249.518921 669.048340,239.261078 673.276733,227.441772 
	C665.907471,224.348862 658.792358,221.800217 652.112427,218.397263 
	C648.007812,216.306274 646.619141,217.286942 644.865723,221.122360 
	C642.490845,226.316940 640.009766,231.789185 636.263062,235.966156 
	C626.836426,246.475296 608.208557,247.141388 594.802185,239.283325 
	C586.265320,234.279434 582.076660,226.138275 578.998291,216.343109 
M510.998962,221.503479 
	C508.325317,238.546997 505.651703,255.590530 502.949707,272.814636 
	C512.508850,272.814636 521.614563,272.814636 530.901978,272.814636 
	C534.617493,249.326019 538.324097,225.992432 541.995850,202.653351 
	C545.682434,179.220123 549.334290,155.781448 553.024536,132.197021 
	C543.447510,132.197021 534.342407,132.197021 525.145386,132.197021 
	C520.410645,161.786758 515.704956,191.194672 510.998962,221.503479 
M949.468018,270.975891 
	C948.064148,267.002441 946.660339,263.028992 945.169678,258.809692 
	C952.656189,255.913406 958.262756,251.704636 960.151184,243.573456 
	C961.427917,238.076340 959.062866,232.778015 953.427734,232.116119 
	C946.270752,231.275497 939.009521,231.207413 931.790588,231.152206 
	C930.869629,231.145157 929.581055,233.077560 929.062500,234.354919 
	C926.417542,240.869400 923.897095,247.437225 921.471619,254.037292 
	C918.588501,261.882751 915.846191,269.779907 912.919983,277.999817 
	C915.803467,277.999817 918.176147,277.687408 920.432861,278.066010 
	C924.882935,278.812592 926.850525,276.647217 928.033447,272.756836 
	C929.127686,269.158478 930.602905,265.675995 932.295349,261.102142 
	C933.795227,267.536102 935.003418,272.719025 936.177063,277.753662 
	C941.664062,277.753662 946.736267,277.753662 952.125610,277.753662 
	C951.331604,275.499115 950.649292,273.561768 949.468018,270.975891 
M895.897339,243.348984 
	C896.278137,243.377899 896.872070,243.578873 897.008118,243.410263 
	C899.656738,240.128738 902.251953,236.804077 904.894775,233.441620 
	C889.440186,227.261658 883.644836,229.456848 872.971252,238.680130 
	C868.826111,242.262039 867.674194,247.653580 868.132446,252.935028 
	C868.525085,257.459839 873.587402,256.624115 876.261047,258.632111 
	C876.851807,259.075806 878.052246,258.787842 878.540710,259.271912 
	C879.818542,260.538116 881.867188,262.146454 881.738098,263.430359 
	C881.575134,265.051758 879.861267,267.034973 878.287476,267.901306 
	C873.252136,270.673279 869.800537,267.429535 866.366028,263.898041 
	C863.590210,267.174011 860.861572,270.394226 857.929810,273.854218 
	C860.465271,275.297150 862.678833,277.264526 865.219849,277.880188 
	C876.091370,280.514069 885.889526,278.382904 892.517456,268.836029 
	C898.286316,260.526672 900.338013,253.095139 889.095703,248.527115 
	C886.931458,247.647751 884.917908,246.397369 882.873657,245.338257 
	C885.536438,239.003647 887.735229,238.628235 895.897339,243.348984 
M973.028442,273.784332 
	C972.732422,275.101318 972.436340,276.418274 972.080627,278.000671 
	C980.452087,278.000671 988.434021,278.061523 996.412415,277.921692 
	C997.380676,277.904694 998.690918,277.027954 999.219238,276.167114 
	C1000.702271,273.750549 1001.859314,271.133972 1003.373779,268.144592 
	C998.341248,268.144592 993.903076,268.144592 989.143921,268.144592 
	C993.518677,255.658691 997.774231,243.513123 1002.158691,230.999466 
	C998.790466,230.999466 995.957886,231.170563 993.155396,230.953583 
	C990.061523,230.714066 988.919434,231.784851 987.824951,234.916275 
	C983.341858,247.742493 978.273865,260.364349 973.028442,273.784332 
M898.938171,272.528320 
	C899.133606,274.079468 898.799622,276.565399 899.612793,277.025940 
	C904.010315,279.516632 905.632385,275.354431 908.098206,273.241425 
	C905.163818,267.707062 903.997742,267.543640 898.938171,272.528320 
M957.033813,276.255219 
	C962.070374,280.270172 964.309509,275.979248 967.898926,272.384705 
	C965.744934,271.079620 963.976196,269.101654 962.343079,269.207916 
	C958.988098,269.426239 957.064026,271.884644 957.033813,276.255219 
M1013.966675,270.729401 
	C1011.012939,267.114410 1008.248291,269.245087 1006.357361,271.592590 
	C1005.467163,272.697754 1005.607605,276.224030 1006.563965,276.940399 
	C1010.046265,279.548859 1011.990540,276.672058 1013.561401,273.912903 
	C1013.937134,273.252991 1013.864868,272.337982 1013.966675,270.729401 
z"/>
<path fill="#000000" opacity="1.000000" stroke="none" 
	d="
M425.856750,285.999207 
	C501.938812,286.000763 577.602478,285.966217 653.265808,286.101837 
	C657.036987,286.108612 658.777039,285.016602 659.913452,281.509949 
	C665.542419,264.140289 671.279358,246.804291 677.145752,229.513229 
	C683.939880,209.487320 690.999329,189.551300 697.765564,169.516098 
	C701.502869,158.449615 705.044373,147.309204 708.310913,136.096283 
	C709.306946,132.677048 710.846497,131.772552 714.211304,131.917648 
	C720.698975,132.197418 727.229248,132.321106 733.698669,131.877731 
	C737.543030,131.614273 738.839966,133.356430 739.847595,136.451538 
	C746.587219,157.153610 753.264648,177.877563 760.233521,198.502762 
	C765.868591,215.180496 772.007507,231.687622 777.688232,248.350449 
	C781.665466,260.016449 785.195190,271.834656 789.094910,283.528137 
	C789.441162,284.566498 790.938599,285.458649 792.099487,285.915741 
	C793.109680,286.313568 794.400146,286.000244 795.566772,286.000244 
	C873.730286,286.000336 951.893738,286.000275 1030.057251,286.000275 
	C1031.867310,286.000275 1033.677368,286.000305 1036.417847,286.000305 
	C1035.540649,292.423218 1034.715332,298.465790 1033.822876,305.000183 
	C1032.073730,305.000183 1030.282715,305.000183 1028.491699,305.000214 
	C914.829651,305.000610 801.167603,305.031982 687.505737,304.889832 
	C682.886963,304.884033 680.978271,306.127899 679.844421,310.671631 
	C678.063416,317.809021 675.428406,324.745239 672.901428,331.674164 
	C672.417419,333.001251 670.789368,334.820587 669.644592,334.853271 
	C660.513123,335.113892 651.370911,334.998657 641.868164,334.998657 
	C645.219666,324.871124 648.437439,315.147949 651.795654,305.000275 
	C649.648560,305.000275 647.744385,305.000305 645.840149,305.000305 
	C571.009888,305.000275 496.179565,305.000183 421.349274,305.000214 
	C411.776642,305.000214 411.662994,304.980438 410.064392,314.076080 
	C408.861694,320.919006 407.998383,327.821564 406.965118,334.825470 
	C399.230164,334.825470 391.783508,334.825470 384.027100,334.825470 
	C384.714203,329.695374 385.253540,324.742249 386.070282,319.835297 
	C386.863312,315.070709 387.940918,310.353485 389.001526,305.078522 
	C378.410797,305.078522 367.935730,305.078522 357.460693,305.078522 
	C357.367218,304.750458 357.273773,304.422394 357.180298,304.094330 
	C363.140289,300.388977 369.174591,296.796722 375.037811,292.944122 
	C380.141541,289.590546 385.277496,286.210205 389.930176,282.285614 
	C391.643250,280.840637 392.494049,277.888733 392.917877,275.479828 
	C395.387543,261.442749 397.669342,247.371628 399.903870,233.294434 
	C401.684540,222.076202 403.247162,210.823410 405.015900,199.603180 
	C406.933075,187.441162 409.017853,175.305557 410.931915,163.143082 
	C411.332642,160.596848 411.307678,157.983627 411.500610,155.073303 
	C404.749268,155.073303 397.638245,155.073303 390.266113,155.073303 
	C390.266113,147.335953 390.266113,139.930298 390.266113,131.999313 
	C391.700897,131.999313 393.139099,131.999313 394.577301,131.999313 
	C412.743225,131.999268 430.909271,132.034424 449.075073,131.987778 
	C462.995758,131.952026 476.098358,135.141113 487.447937,143.254150 
	C500.326508,152.460190 508.500336,164.891739 511.061646,180.870895 
	C513.663208,197.101120 507.383148,210.218216 497.365845,222.083801 
	C483.082336,239.002808 466.565796,253.449875 448.505157,266.255035 
	C440.173309,272.162415 432.443176,278.918579 424.452942,285.305817 
	C424.402130,285.346405 424.485077,285.704926 424.584991,285.754181 
	C424.845886,285.882965 425.150909,285.922333 425.856750,285.999207 
M472.017700,216.473114 
	C476.600037,210.858932 481.943176,205.682419 485.509216,199.483582 
	C488.079041,195.016434 490.056183,189.654266 488.409546,183.747757 
	C484.374207,169.272629 476.156219,159.063034 460.790070,156.467819 
	C452.352814,155.042816 443.723846,154.753098 435.256927,153.958572 
	C429.712372,189.645462 424.266205,224.698807 418.820068,259.752167 
	C419.426758,260.140869 420.033417,260.529572 420.640106,260.918304 
	C437.591492,246.279816 454.542877,231.641342 472.017700,216.473114 
M750.962280,258.679260 
	C750.648682,258.108582 750.231934,257.571014 750.036682,256.962341 
	C745.587646,243.093964 741.304871,229.170364 736.689819,215.357742 
	C732.792480,203.692719 728.515015,192.154678 724.200500,179.981277 
	C712.136230,215.597687 700.241394,250.713959 688.368713,285.764771 
	C712.185547,285.764771 735.854004,285.764771 759.679504,285.764771 
	C756.728149,276.834167 753.863953,268.167297 750.962280,258.679260 
z"/>
<path fill="#000001" opacity="1.000000" stroke="none" 
	d="
M237.157867,304.019379 
	C232.790115,321.620819 228.422379,339.222260 224.054626,356.823700 
	C223.740082,356.834412 223.425522,356.845123 223.110977,356.855835 
	C219.738617,346.376892 216.341476,335.905853 213.002838,325.416168 
	C210.862701,318.692078 208.808807,311.940552 206.362579,304.631409 
	C202.002731,291.989594 197.996567,279.917694 193.992828,267.454041 
	C193.662048,265.838165 193.377182,264.598480 192.988541,263.392242 
	C183.665848,234.456665 174.347168,205.519791 164.956421,176.606308 
	C164.476944,175.129990 163.360779,173.860458 161.893051,171.415039 
	C157.493576,189.013733 153.523560,204.910431 149.544907,220.804947 
	C146.036636,234.820358 142.518723,248.833344 138.689194,263.080322 
	C135.300079,275.548584 132.226837,287.783966 129.153625,300.019318 
	C124.440681,318.708130 119.726959,337.396759 115.015076,356.085815 
	C111.676010,369.329803 108.203514,382.542664 105.101685,395.842010 
	C104.368301,398.986481 103.324097,400.166931 100.018677,400.075470 
	C91.743675,399.846588 83.458099,399.999878 74.995735,399.999878 
	C83.406372,366.408600 91.707977,333.269196 99.990913,300.125061 
	C100.422516,298.397980 100.695053,296.631195 101.339508,294.255371 
	C104.712982,281.739075 107.788582,269.850220 110.921623,257.548004 
	C111.002373,256.469543 110.908440,255.775269 111.065872,255.143631 
	C117.642487,228.757309 124.241592,202.376617 130.923950,175.609283 
	C131.498459,173.504120 132.028351,171.795410 132.468704,170.063904 
	C135.272018,159.041061 138.055618,148.013199 140.845703,136.986969 
	C146.529327,114.101494 152.212952,91.216019 157.896591,68.330551 
	C158.339035,68.269363 158.781494,68.208176 159.223953,68.146996 
	C166.152878,89.499687 173.081802,110.852386 180.150055,132.959351 
	C182.935699,142.288712 185.475327,150.898849 188.275558,159.423370 
	C189.579132,163.391708 191.388214,167.194016 192.962433,171.477966 
	C196.309875,182.256485 199.614136,192.644730 203.027115,202.997162 
	C208.820679,220.570511 214.682785,238.121262 220.564285,255.826584 
	C222.891983,246.455505 225.157471,237.254623 227.465714,228.064499 
	C229.818909,218.695480 232.266693,209.349960 234.575775,199.970184 
	C236.774445,191.038956 238.847534,182.076797 241.296585,172.909973 
	C244.696167,160.456741 247.775009,148.221771 250.853851,135.986816 
	C257.045685,111.394569 263.247223,86.804749 269.425659,62.209126 
	C272.970154,48.099064 276.534973,33.993546 279.951569,19.852375 
	C280.626556,17.058495 281.665466,15.816475 284.822723,15.913125 
	C293.125031,16.167280 301.440247,15.999012 310.301208,15.999012 
	C299.799133,57.695175 289.410065,98.942619 278.908630,140.936722 
	C278.313049,143.226379 277.742828,144.748169 277.360596,146.315796 
	C274.881592,156.483749 272.443481,166.661682 269.632294,177.026306 
	C266.181580,189.513275 263.098145,201.812195 259.997650,214.106812 
	C255.720734,231.066315 251.430969,248.022598 247.066254,265.368652 
	C243.709824,278.511169 240.433838,291.265289 237.157867,304.019379 
z"/>
<path fill="#A40001" opacity="1.000000" stroke="none" 
	d="
M237.566315,303.999634 
	C240.433838,291.265289 243.709824,278.511169 247.472137,265.365509 
	C248.380081,264.742554 248.777328,264.385010 249.226868,264.298157 
	C263.667236,261.508881 278.451599,259.873352 292.462341,255.662537 
	C306.551361,251.428192 320.247101,245.371185 333.378143,238.668854 
	C340.507172,235.030060 346.238251,228.535599 352.321472,223.022018 
	C354.753723,220.817505 354.759094,217.507843 352.460175,215.091324 
	C349.026093,211.481583 345.407654,207.971527 341.476044,204.924347 
	C327.305420,193.941574 310.554901,188.399780 293.774261,183.096878 
	C285.967010,180.629684 277.926636,178.900223 269.991943,176.836349 
	C272.443481,166.661682 274.881592,156.483749 277.360596,146.315796 
	C277.742828,144.748169 278.313049,143.226379 278.984711,141.342834 
	C297.165070,144.781967 314.777313,149.633118 331.812744,156.804184 
	C343.524872,161.734406 354.609497,167.648483 364.732574,175.092148 
	C380.162415,186.437988 392.427246,200.222992 391.912384,221.037872 
	C391.633179,232.325668 386.716400,242.031494 379.173492,250.258163 
	C365.698425,264.954590 348.951294,274.849091 330.537354,281.918854 
	C318.386719,286.583923 306.096924,291.025360 293.586914,294.569763 
	C284.271393,297.209106 274.523376,298.372162 264.930634,299.968414 
	C255.970932,301.459259 246.962021,302.654541 237.566315,303.999634 
z"/>
<path fill="#A40001" opacity="1.000000" stroke="none" 
	d="
M140.422943,136.992004 
	C138.055618,148.013199 135.272018,159.041061 132.468704,170.063904 
	C132.028351,171.795410 131.498459,173.504120 130.572418,175.779572 
	C128.562012,176.622269 126.980247,176.867249 125.417633,177.201660 
	C108.981133,180.719269 92.839767,185.216537 77.423401,192.018890 
	C65.224487,197.401581 53.433464,203.396469 44.562531,213.858734 
	C41.870651,217.033508 41.007862,219.967697 43.904507,223.383392 
	C45.272423,224.996429 46.350792,226.899918 47.886639,228.318558 
	C60.556015,240.021133 76.121109,246.390442 92.073463,251.966660 
	C98.277473,254.135300 104.597176,255.972977 110.864182,257.961395 
	C107.788582,269.850220 104.712982,281.739075 101.326134,293.840790 
	C82.874718,288.814941 64.830566,283.342438 48.219604,274.046234 
	C33.863171,266.011749 20.449327,256.875793 11.274698,242.763824 
	C-0.114313,225.245804 2.262491,206.224945 14.566886,190.957382 
	C28.849220,173.235535 48.285370,163.339615 68.823952,154.892136 
	C87.890747,147.049988 107.908638,142.803253 127.834000,138.153946 
	C131.765335,137.236633 135.938522,137.355835 140.422943,136.992004 
z"/>
<path fill="#000000" opacity="1.000000" stroke="none" 
	d="
M579.013916,216.770203 
	C582.076660,226.138275 586.265320,234.279434 594.802185,239.283325 
	C608.208557,247.141388 626.836426,246.475296 636.263062,235.966156 
	C640.009766,231.789185 642.490845,226.316940 644.865723,221.122360 
	C646.619141,217.286942 648.007812,216.306274 652.112427,218.397263 
	C658.792358,221.800217 665.907471,224.348862 673.276733,227.441772 
	C669.048340,239.261078 663.240479,249.518921 653.921936,258.174164 
	C640.807068,270.355560 625.363098,274.070251 608.376648,272.866882 
	C598.059143,272.135986 588.485718,268.748810 579.421753,263.176270 
	C564.094971,253.753326 555.612061,239.616364 551.258667,223.120605 
	C545.898987,202.811722 549.127319,183.049835 560.114929,165.093704 
	C566.829346,154.120911 576.719727,146.603943 588.326538,140.571167 
	C598.229004,135.424286 608.420959,133.248398 619.051392,133.172424 
	C632.578003,133.075745 644.823914,137.748322 654.144043,147.834427 
	C660.921448,155.168930 666.776062,163.356201 673.497437,171.730530 
	C664.348511,177.328400 656.452820,182.159485 648.835938,186.819931 
	C645.352844,182.152130 641.731445,177.792404 638.653381,173.077911 
	C630.628052,160.785767 619.737488,160.231522 607.225830,163.399933 
	C598.096558,165.711792 590.506653,171.175827 585.224365,178.667557 
	C581.069458,184.560303 577.513550,191.348801 577.997681,199.207153 
	C578.349548,204.917999 578.666016,210.631042 579.013916,216.770203 
z"/>
<path fill="#000000" opacity="1.000000" stroke="none" 
	d="
M510.999146,221.053040 
	C515.704956,191.194672 520.410645,161.786758 525.145386,132.197021 
	C534.342407,132.197021 543.447510,132.197021 553.024536,132.197021 
	C549.334290,155.781448 545.682434,179.220123 541.995850,202.653351 
	C538.324097,225.992432 534.617493,249.326019 530.901978,272.814636 
	C521.614563,272.814636 512.508850,272.814636 502.949707,272.814636 
	C505.651703,255.590530 508.325317,238.546997 510.999146,221.053040 
z"/>
<path fill="#A40001" opacity="1.000000" stroke="none" 
	d="
M129.566330,300.028137 
	C132.226837,287.783966 135.300079,275.548584 139.066406,263.262848 
	C144.748840,263.819946 149.724197,264.603241 154.730209,265.000732 
	C167.809784,266.039154 180.902756,266.908844 193.990387,267.845825 
	C197.996567,279.917694 202.002731,291.989594 206.006302,304.446960 
	C194.711670,304.888428 183.388550,305.494354 172.135590,304.858704 
	C158.623795,304.095520 145.170837,302.283386 131.696884,300.882233 
	C131.101425,300.820312 130.550644,300.328552 129.566330,300.028137 
z"/>
<path fill="#A40000" opacity="1.000000" stroke="none" 
	d="
M192.968140,171.071579 
	C191.388214,167.194016 189.579132,163.391708 188.275558,159.423370 
	C185.475327,150.898849 182.935699,142.288712 180.218658,133.354492 
	C184.783005,132.996460 189.427551,132.804779 194.051453,133.032486 
	C212.696365,133.950684 231.334915,134.998291 250.414825,135.992462 
	C247.775009,148.221771 244.696167,160.456741 240.869080,172.853531 
	C233.834259,172.343918 227.560135,171.298859 221.258194,171.088715 
	C211.838455,170.774582 202.399139,171.048050 192.968140,171.071579 
z"/>
<path fill="#010101" opacity="1.000000" stroke="none" 
	d="
M949.717529,271.300171 
	C950.649292,273.561768 951.331604,275.499115 952.125610,277.753662 
	C946.736267,277.753662 941.664062,277.753662 936.177063,277.753662 
	C935.003418,272.719025 933.795227,267.536102 932.295349,261.102142 
	C930.602905,265.675995 929.127686,269.158478 928.033447,272.756836 
	C926.850525,276.647217 924.882935,278.812592 920.432861,278.066010 
	C918.176147,277.687408 915.803467,277.999817 912.919983,277.999817 
	C915.846191,269.779907 918.588501,261.882751 921.471619,254.037292 
	C923.897095,247.437225 926.417542,240.869400 929.062500,234.354919 
	C929.581055,233.077560 930.869629,231.145157 931.790588,231.152206 
	C939.009521,231.207413 946.270752,231.275497 953.427734,232.116119 
	C959.062866,232.778015 961.427917,238.076340 960.151184,243.573456 
	C958.262756,251.704636 952.656189,255.913406 945.169678,258.809692 
	C946.660339,263.028992 948.064148,267.002441 949.717529,271.300171 
M935.475708,250.050827 
	C942.229919,252.834641 946.401917,249.631134 945.660828,242.632675 
	C940.909790,239.054886 938.932678,241.793274 937.528625,245.934265 
	C937.120483,247.138046 936.488098,248.265793 935.475708,250.050827 
z"/>
<path fill="#010101" opacity="1.000000" stroke="none" 
	d="
M895.612427,243.116394 
	C887.735229,238.628235 885.536438,239.003647 882.873657,245.338257 
	C884.917908,246.397369 886.931458,247.647751 889.095703,248.527115 
	C900.338013,253.095139 898.286316,260.526672 892.517456,268.836029 
	C885.889526,278.382904 876.091370,280.514069 865.219849,277.880188 
	C862.678833,277.264526 860.465271,275.297150 857.929810,273.854218 
	C860.861572,270.394226 863.590210,267.174011 866.366028,263.898041 
	C869.800537,267.429535 873.252136,270.673279 878.287476,267.901306 
	C879.861267,267.034973 881.575134,265.051758 881.738098,263.430359 
	C881.867188,262.146454 879.818542,260.538116 878.540710,259.271912 
	C878.052246,258.787842 876.851807,259.075806 876.261047,258.632111 
	C873.587402,256.624115 868.525085,257.459839 868.132446,252.935028 
	C867.674194,247.653580 868.826111,242.262039 872.971252,238.680130 
	C883.644836,229.456848 889.440186,227.261658 904.894775,233.441620 
	C902.251953,236.804077 899.656738,240.128738 897.008118,243.410263 
	C896.872070,243.578873 896.278137,243.377899 895.612427,243.116394 
z"/>
<path fill="#010101" opacity="1.000000" stroke="none" 
	d="
M973.224792,273.422852 
	C978.273865,260.364349 983.341858,247.742493 987.824951,234.916275 
	C988.919434,231.784851 990.061523,230.714066 993.155396,230.953583 
	C995.957886,231.170563 998.790466,230.999466 1002.158691,230.999466 
	C997.774231,243.513123 993.518677,255.658691 989.143921,268.144592 
	C993.903076,268.144592 998.341248,268.144592 1003.373779,268.144592 
	C1001.859314,271.133972 1000.702271,273.750549 999.219238,276.167114 
	C998.690918,277.027954 997.380676,277.904694 996.412415,277.921692 
	C988.434021,278.061523 980.452087,278.000671 972.080627,278.000671 
	C972.436340,276.418274 972.732422,275.101318 973.224792,273.422852 
z"/>
<path fill="#010101" opacity="1.000000" stroke="none" 
	d="
M898.982544,272.130524 
	C903.997742,267.543640 905.163818,267.707062 908.098206,273.241425 
	C905.632385,275.354431 904.010315,279.516632 899.612793,277.025940 
	C898.799622,276.565399 899.133606,274.079468 898.982544,272.130524 
z"/>
<path fill="#010101" opacity="1.000000" stroke="none" 
	d="
M957.017395,275.852112 
	C957.064026,271.884644 958.988098,269.426239 962.343079,269.207916 
	C963.976196,269.101654 965.744934,271.079620 967.898926,272.384705 
	C964.309509,275.979248 962.070374,280.270172 957.017395,275.852112 
z"/>
<path fill="#010101" opacity="1.000000" stroke="none" 
	d="
M1013.982666,271.134827 
	C1013.864868,272.337982 1013.937134,273.252991 1013.561401,273.912903 
	C1011.990540,276.672058 1010.046265,279.548859 1006.563965,276.940399 
	C1005.607605,276.224030 1005.467163,272.697754 1006.357361,271.592590 
	C1008.248291,269.245087 1011.012939,267.114410 1013.982666,271.134827 
z"/>
<path fill="#FFFFFF" opacity="1.000000" stroke="none" 
	d="
M471.755981,216.737991 
	C454.542877,231.641342 437.591492,246.279816 420.640106,260.918304 
	C420.033417,260.529572 419.426758,260.140869 418.820068,259.752167 
	C424.266205,224.698807 429.712372,189.645462 435.256927,153.958572 
	C443.723846,154.753098 452.352814,155.042816 460.790070,156.467819 
	C476.156219,159.063034 484.374207,169.272629 488.409546,183.747757 
	C490.056183,189.654266 488.079041,195.016434 485.509216,199.483582 
	C481.943176,205.682419 476.600037,210.858932 471.755981,216.737991 
z"/>
<path fill="#FFFFFF" opacity="1.000000" stroke="none" 
	d="
M750.981018,259.089844 
	C753.863953,268.167297 756.728149,276.834167 759.679504,285.764771 
	C735.854004,285.764771 712.185547,285.764771 688.368713,285.764771 
	C700.241394,250.713959 712.136230,215.597687 724.200500,179.981277 
	C728.515015,192.154678 732.792480,203.692719 736.689819,215.357742 
	C741.304871,229.170364 745.587646,243.093964 750.036682,256.962341 
	C750.231934,257.571014 750.648682,258.108582 750.981018,259.089844 
z"/>
<path fill="#FEFFFE" opacity="1.000000" stroke="none" 
	d="
M269.632294,177.026306 
	C277.926636,178.900223 285.967010,180.629684 293.774261,183.096878 
	C310.554901,188.399780 327.305420,193.941574 341.476044,204.924347 
	C345.407654,207.971527 349.026093,211.481583 352.460175,215.091324 
	C354.759094,217.507843 354.753723,220.817505 352.321472,223.022018 
	C346.238251,228.535599 340.507172,235.030060 333.378143,238.668854 
	C320.247101,245.371185 306.551361,251.428192 292.462341,255.662537 
	C278.451599,259.873352 263.667236,261.508881 249.226868,264.298157 
	C248.777328,264.385010 248.380081,264.742554 247.552582,264.977112 
	C251.430969,248.022598 255.720734,231.066315 259.997650,214.106812 
	C263.098145,201.812195 266.181580,189.513275 269.632294,177.026306 
z"/>
<path fill="#FEFFFE" opacity="1.000000" stroke="none" 
	d="
M110.921623,257.548004 
	C104.597176,255.972977 98.277473,254.135300 92.073463,251.966660 
	C76.121109,246.390442 60.556015,240.021133 47.886639,228.318558 
	C46.350792,226.899918 45.272423,224.996429 43.904507,223.383392 
	C41.007862,219.967697 41.870651,217.033508 44.562531,213.858734 
	C53.433464,203.396469 65.224487,197.401581 77.423401,192.018890 
	C92.839767,185.216537 108.981133,180.719269 125.417633,177.201660 
	C126.980247,176.867249 128.562012,176.622269 130.486389,176.165482 
	C124.241592,202.376617 117.642487,228.757309 111.065872,255.143631 
	C110.908440,255.775269 111.002373,256.469543 110.921623,257.548004 
z"/>
<path fill="#FFFFFF" opacity="1.000000" stroke="none" 
	d="
M193.992828,267.454041 
	C180.902756,266.908844 167.809784,266.039154 154.730209,265.000732 
	C149.724197,264.603241 144.748840,263.819946 139.382294,263.029938 
	C142.518723,248.833344 146.036636,234.820358 149.544907,220.804947 
	C153.523560,204.910431 157.493576,189.013733 161.893051,171.415039 
	C163.360779,173.860458 164.476944,175.129990 164.956421,176.606308 
	C174.347168,205.519791 183.665848,234.456665 192.988541,263.392242 
	C193.377182,264.598480 193.662048,265.838165 193.992828,267.454041 
z"/>
<path fill="#FEFFFE" opacity="1.000000" stroke="none" 
	d="
M192.962433,171.477966 
	C202.399139,171.048050 211.838455,170.774582 221.258194,171.088715 
	C227.560135,171.298859 233.834259,172.343918 240.548340,173.071808 
	C238.847534,182.076797 236.774445,191.038956 234.575775,199.970184 
	C232.266693,209.349960 229.818909,218.695480 227.465714,228.064499 
	C225.157471,237.254623 222.891983,246.455505 220.564285,255.826584 
	C214.682785,238.121262 208.820679,220.570511 203.027115,202.997162 
	C199.614136,192.644730 196.309875,182.256485 192.962433,171.477966 
z"/>
<path fill="#FEFEFE" opacity="1.000000" stroke="none" 
	d="
M935.717102,249.739609 
	C936.488098,248.265793 937.120483,247.138046 937.528625,245.934265 
	C938.932678,241.793274 940.909790,239.054886 945.660828,242.632675 
	C946.401917,249.631134 942.229919,252.834641 935.717102,249.739609 
z"/>
</svg>